<svg xmlns="http://www.w3.org/2000/svg" viewBox="0 0 120 32" fill="none" role="img" aria-label="RE/MAX">
  <path d="M8 24V8h4.2c2.4 0 4 1.4 4 3.5 0 1.4-.7 2.5-1.9 3.1 1.5.5 2.4 1.8 2.4 3.5 0 2.4-1.8 4-4.5 4H8zm3.6-9.2h.5c1.1 0 1.7-.5 1.7-1.3s-.6-1.2-1.7-1.2h-.5v2.5zm0 6.8h.7c1.4 0 2.1-.6 2.1-1.6 0-1-.7-1.5-2.1-1.5h-.7v3.1z" fill="#374151"/>
  <path d="M20.5 24V8H24v16h-3.5z" fill="#374151"/>
  <path d="M27 8h6.8c3.5 0 5.8 2.2 5.8 5.5S37.3 19 33.8 19H31v5h-4V8zm3.6 3.4v4.2h2.4c1.5 0 2.4-.8 2.4-2.1 0-1.3-.9-2.1-2.4-2.1h-2.4z" fill="#374151"/>
  <path d="M40.5 16c0-4.7 3.4-8.2 8-8.2s8 3.5 8 8.2-3.4 8.2-8 8.2-8-3.5-8-8.2zm12.2 0c0-2.6-1.7-4.5-4.2-4.5s-4.2 1.9-4.2 4.5 1.7 4.5 4.2 4.5 4.2-1.9 4.2-4.5z" fill="#374151"/>
  <path d="M59 8h4.5l5.4 10.2V8H73v16h-4.3L63.2 13.5V24H59V8z" fill="#374151"/>
  <circle cx="14" cy="11" r="4.5" fill="#374151" opacity="0.85"/>
</svg>
